<?xml version="1.0" standalone="no"?>
<!DOCTYPE svg PUBLIC "-//W3C//DTD SVG 20010904//EN"
 "http://www.w3.org/TR/2001/REC-SVG-20010904/DTD/svg10.dtd">
<svg version="1.0" xmlns="http://www.w3.org/2000/svg"
 width="1024.000000pt" height="1024.000000pt" viewBox="0 0 1024.000000 1024.000000"
 preserveAspectRatio="xMidYMid meet">
<metadata>
Created by potrace 1.14, written by Peter Selinger 2001-2017
</metadata>
<g transform="translate(0.000000,1024.000000) scale(0.100000,-0.100000)"
fill="#000000" stroke="none">
<path d="M4650 9232 c0 -5 -26 -8 -57 -8 -32 1 -69 -3 -83 -10 -14 -6 -56 -10
-93 -9 -37 1 -70 -2 -73 -7 -3 -4 -16 -8 -29 -8 -13 0 -26 -6 -28 -12 -4 -10
-8 -9 -16 2 -7 10 -11 11 -11 3 0 -9 -16 -13 -45 -13 -26 0 -45 -5 -45 -11 0
-6 -6 -9 -12 -6 -7 2 -24 0 -38 -6 -14 -5 -34 -10 -45 -11 -11 -1 -30 -8 -42
-14 -19 -10 -23 -10 -23 0 0 9 -3 10 -8 2 -4 -6 -15 -10 -25 -8 -10 1 -14 -2
-10 -9 4 -6 0 -8 -10 -4 -10 3 -17 2 -17 -3 0 -5 -9 -7 -20 -5 -11 2 -20 0
-20 -5 0 -5 -7 -7 -15 -4 -8 4 -17 -1 -21 -9 -3 -9 -12 -13 -19 -11 -7 3 -24
-2 -37 -10 -14 -9 -28 -13 -31 -9 -4 3 -7 1 -7 -5 0 -7 -11 -12 -23 -12 -13 0
-38 -7 -55 -16 -17 -8 -44 -17 -59 -20 -15 -3 -32 -9 -39 -15 -6 -5 -14 -6
-17 -2 -4 3 -7 1 -7 -6 0 -7 -6 -11 -14 -8 -8 3 -20 -1 -27 -9 -7 -8 -18 -13
-25 -10 -7 3 -14 1 -16 -4 -2 -5 -9 -10 -17 -12 -8 -2 -23 -9 -32 -17 -10 -8
-28 -16 -40 -18 -11 -2 -33 -12 -48 -22 -14 -10 -37 -22 -51 -26 -14 -4 -31
-15 -38 -24 -8 -9 -10 -10 -6 -2 3 7 -19 -3 -50 -23 -31 -20 -58 -36 -61 -37
-30 -6 -45 -13 -45 -21 0 -6 -7 -8 -15 -4 -9 3 -15 0 -15 -10 0 -8 -4 -13 -8
-10 -4 2 -27 -9 -51 -25 -24 -16 -48 -29 -54 -29 -5 0 -18 -12 -29 -26 -11
-14 -26 -23 -32 -21 -7 3 -18 -4 -25 -15 -7 -11 -15 -17 -18 -14 -3 3 -18 -7
-33 -22 -14 -16 -32 -26 -38 -24 -7 2 -12 -1 -12 -6 0 -6 -9 -13 -19 -17 -11
-3 -33 -20 -50 -37 -17 -18 -31 -28 -31 -24 0 4 -11 -5 -25 -20 -14 -15 -28
-24 -31 -21 -3 3 -17 -5 -31 -19 -13 -13 -27 -24 -31 -24 -4 0 -16 -14 -26
-31 -11 -18 -23 -28 -32 -25 -8 3 -14 -1 -14 -9 0 -8 -5 -15 -10 -15 -6 0 -30
-19 -53 -42 -23 -23 -44 -43 -47 -43 -3 0 -23 -18 -45 -39 -22 -22 -33 -36
-25 -32 8 4 6 1 -4 -8 -10 -8 -23 -13 -28 -10 -5 3 -8 -2 -6 -12 2 -11 -2 -18
-9 -16 -7 1 -13 -5 -13 -13 0 -8 -3 -14 -7 -13 -5 2 -9 0 -10 -4 -2 -5 -30
-35 -62 -67 -33 -33 -57 -62 -54 -65 4 -3 -1 -6 -11 -6 -9 0 -15 -4 -11 -9 3
-6 -3 -14 -12 -20 -10 -6 -15 -11 -11 -11 5 0 -2 -10 -15 -22 -12 -13 -25 -22
-29 -20 -5 1 -8 -4 -8 -11 0 -7 -13 -29 -30 -48 -16 -19 -35 -41 -42 -49 -7
-8 -13 -17 -14 -20 0 -3 -11 -23 -25 -45 -13 -22 -23 -43 -21 -47 1 -5 -5 -8
-13 -8 -8 0 -15 -4 -15 -10 0 -5 -10 -19 -23 -31 -12 -12 -15 -19 -7 -15 8 4
6 0 -4 -8 -11 -9 -17 -16 -13 -16 4 0 -1 -10 -13 -22 -11 -12 -20 -25 -20 -29
0 -9 -42 -75 -62 -99 -7 -8 -12 -18 -11 -22 2 -5 -2 -8 -7 -8 -6 0 -10 -7 -10
-15 0 -8 -5 -15 -11 -15 -6 0 -8 -7 -5 -17 4 -10 4 -14 0 -10 -9 8 -40 -34
-36 -48 2 -5 -5 -15 -15 -23 -10 -7 -17 -16 -17 -20 3 -16 -9 -31 -19 -25 -6
3 -7 1 -3 -5 4 -6 -2 -20 -14 -32 -11 -11 -20 -29 -20 -41 0 -11 -3 -18 -8
-15 -4 2 -8 -9 -8 -25 -2 -32 -3 -31 116 -32 25 0 48 -5 52 -11 5 -7 8 -6 8 4
0 12 2 12 9 1 7 -10 13 -11 31 -1 16 8 20 9 15 1 -7 -12 34 -9 54 3 5 4 13 1
17 -5 4 -8 9 -7 15 2 5 8 9 9 9 4 0 -14 47 -18 55 -5 4 6 12 7 18 3 21 -13 89
-14 81 -1 -5 8 -3 8 7 2 19 -13 72 -12 81 1 5 6 8 6 8 -2 0 -7 7 -13 15 -13 8
0 15 6 15 13 0 8 4 7 10 -3 8 -13 13 -13 31 -2 11 8 18 9 15 4 -4 -6 7 -9 26
-8 47 4 48 5 48 17 0 7 10 20 22 30 11 11 17 19 12 19 -5 0 -4 4 1 8 6 4 22
28 35 55 14 26 28 47 32 47 5 0 8 9 8 20 0 11 7 23 15 26 8 4 15 13 15 21 0 8
3 12 8 10 9 -6 33 19 26 26 -5 5 3 17 58 80 15 18 28 35 28 40 0 4 7 7 16 7 8
0 13 4 9 10 -3 5 14 29 37 54 24 24 67 72 97 105 30 33 58 58 63 55 5 -3 7 -2
6 3 -3 10 72 83 85 83 4 0 7 8 7 17 0 9 3 13 7 10 7 -8 53 39 53 54 0 6 4 7
10 4 5 -3 29 12 52 34 73 68 90 81 101 74 5 -3 7 -2 4 4 -4 5 5 16 18 23 14 7
25 17 25 22 0 4 6 8 14 8 8 0 22 7 30 16 9 8 16 12 16 8 0 -4 8 2 18 13 9 11
22 18 29 16 6 -2 17 5 23 16 6 12 15 21 21 21 6 0 24 9 40 21 16 11 37 22 45
23 9 1 19 7 22 13 11 16 72 44 83 38 5 -4 8 -1 7 7 -2 7 3 12 10 10 7 -1 15 5
18 13 3 8 10 13 14 10 4 -3 13 2 20 10 6 7 18 11 26 8 8 -3 14 0 14 7 0 6 4 9
9 5 5 -3 16 2 25 10 8 9 18 15 21 14 3 -1 16 2 28 6 12 4 25 7 30 6 4 -1 7 3
7 7 0 5 23 15 50 22 28 7 50 17 50 22 0 4 9 8 19 8 11 0 40 9 64 19 25 11 48
17 52 13 3 -4 9 -1 14 6 4 6 19 13 34 14 15 1 27 6 27 10 0 4 10 6 23 4 12 -2
28 1 36 7 7 6 20 12 29 13 9 2 27 6 41 10 14 4 37 7 51 7 14 0 28 4 31 9 3 5
29 9 57 9 28 1 50 4 48 8 -2 3 16 7 41 8 33 1 46 -3 50 -15 9 -21 8 -64 0 -85
-3 -9 -2 -17 3 -17 5 0 5 -12 0 -28 -4 -16 -4 -36 1 -45 7 -13 3 -20 -20 -32
-19 -9 -32 -11 -36 -5 -4 7 -13 7 -24 0 -10 -5 -21 -7 -24 -4 -3 3 -12 2 -19
-2 -7 -5 -28 -9 -47 -11 -18 -1 -39 -6 -45 -11 -6 -5 -27 -8 -46 -7 -19 0 -37
-3 -40 -7 -3 -3 -17 -8 -30 -10 -14 -2 -30 -7 -36 -10 -6 -4 -25 -9 -43 -10
-17 -1 -31 -6 -31 -10 0 -4 -9 -8 -20 -8 -11 0 -35 -9 -54 -19 -19 -11 -37
-17 -40 -14 -3 4 -6 1 -6 -5 0 -7 -9 -12 -20 -12 -26 0 -70 -21 -70 -33 0 -6
-3 -7 -6 -4 -4 3 -16 1 -28 -5 -11 -7 -25 -13 -31 -14 -26 -4 -55 -17 -55 -26
0 -5 -4 -7 -9 -4 -5 3 -14 -1 -21 -10 -7 -8 -19 -13 -27 -10 -7 3 -13 -1 -13
-10 0 -8 -4 -12 -10 -9 -5 3 -10 2 -10 -4 0 -5 -14 -12 -31 -16 -17 -4 -33
-13 -36 -22 -3 -8 -11 -12 -19 -9 -7 3 -14 1 -16 -4 -2 -5 -10 -10 -18 -12 -8
-2 -23 -12 -33 -23 -10 -11 -15 -13 -11 -5 4 9 -2 7 -17 -6 -13 -12 -32 -24
-41 -27 -10 -4 -18 -11 -18 -17 0 -5 -7 -10 -15 -10 -8 0 -27 -12 -42 -27 -16
-16 -32 -29 -37 -29 -4 -1 -19 -11 -32 -23 -13 -11 -24 -18 -24 -15 0 3 -16
-11 -37 -31 -20 -19 -40 -35 -46 -35 -5 0 -41 -31 -80 -70 -38 -38 -74 -70
-79 -70 -5 0 -7 -4 -3 -9 3 -5 -4 -12 -15 -16 -11 -3 -20 -13 -20 -21 0 -8 -4
-12 -10 -9 -5 3 -10 1 -10 -4 0 -6 -7 -11 -16 -11 -10 0 -14 -5 -10 -16 3 -8
2 -13 -3 -10 -9 6 -71 -46 -71 -58 0 -4 -10 -18 -22 -31 -36 -38 -48 -54 -48
-61 1 -3 -10 -16 -24 -29 -14 -13 -26 -28 -26 -32 0 -5 -9 -15 -19 -22 -11 -8
-17 -20 -14 -28 3 -7 -1 -13 -9 -13 -8 0 -22 -16 -31 -35 -9 -19 -22 -35 -29
-35 -6 0 -8 -3 -5 -7 4 -3 0 -15 -10 -25 -16 -17 -4 -18 370 -18 279 0 388 -3
393 -11 5 -8 -1 -10 -20 -7 -14 3 -26 2 -26 -2 0 -9 -56 -3 -72 6 -7 4 -8 2
-4 -4 4 -7 3 -12 -3 -12 -11 0 -9 -19 3 -39 7 -10 6 -12 -4 -6 -10 6 -12 4 -7
-7 3 -9 0 -21 -6 -27 -8 -8 -8 -11 0 -11 6 0 10 -11 9 -24 0 -13 -4 -22 -8
-19 -5 2 -8 -1 -8 -6 0 -6 4 -11 9 -11 5 0 8 -11 7 -25 0 -16 -6 -23 -13 -20
-7 2 -13 -1 -13 -7 0 -9 -3 -9 -12 0 -9 9 -15 7 -25 -6 -8 -9 -12 -11 -8 -4 5
9 -2 12 -29 9 -21 -3 -36 0 -36 6 0 6 -7 2 -16 -9 -8 -10 -13 -14 -10 -8 3 7
-3 14 -14 17 -11 3 -18 1 -15 -3 6 -10 -154 -17 -195 -9 -17 4 -30 3 -30 -1 0
-4 -11 -5 -25 -2 -14 2 -22 9 -19 16 3 6 -2 2 -10 -8 -12 -15 -16 -16 -16 -5
0 8 -3 10 -8 4 -7 -10 -82 -15 -82 -5 0 7 -75 4 -88 -4 -6 -3 -18 1 -26 10
-15 14 -16 14 -16 -2 0 -13 -3 -14 -15 -4 -8 7 -15 8 -15 3 0 -5 -16 -8 -35
-8 -19 0 -35 5 -35 10 0 7 -3 7 -8 0 -4 -5 -32 -10 -62 -10 -30 0 -58 5 -62
10 -5 6 -8 5 -8 -2 0 -9 -7 -10 -25 -3 -17 7 -25 6 -25 -1 0 -7 -6 -6 -17 2
-11 10 -14 10 -9 2 9 -16 -6 -17 -22 -1 -8 8 -12 8 -12 1 0 -6 -11 -8 -25 -5
-14 2 -22 9 -19 16 3 6 -1 3 -9 -7 -11 -14 -16 -15 -20 -5 -3 7 -6 8 -6 3 -1
-7 -23 -9 -61 -5 -33 3 -60 3 -60 -1 0 -3 -18 -3 -40 1 -27 5 -40 4 -41 -4 0
-6 -4 -2 -9 9 -7 16 -9 17 -9 3 -1 -14 -6 -15 -31 -8 -20 6 -30 5 -30 -2 0 -6
-6 -6 -15 2 -12 10 -15 10 -15 -1 0 -12 -2 -12 -9 0 -6 9 -11 10 -15 2 -5 -8
-13 -8 -27 -1 -12 7 -19 7 -19 1 0 -12 -32 -2 -42 13 -5 8 -8 7 -8 -1 0 -9 -7
-10 -22 -5 -26 9 -60 8 -76 -2 -6 -3 -13 -2 -16 3 -10 15 -66 -11 -66 -31 0
-10 -4 -18 -9 -18 -4 0 -8 -10 -7 -22 1 -13 -2 -26 -6 -29 -5 -3 -11 -16 -13
-30 -3 -13 -9 -25 -14 -27 -5 -2 -7 -12 -4 -23 3 -10 1 -25 -4 -32 -11 -13
-25 -60 -28 -89 -1 -10 -7 -24 -14 -31 -6 -8 -8 -16 -5 -19 3 -4 -1 -19 -9
-35 -8 -15 -12 -34 -10 -40 3 -7 0 -13 -6 -13 -6 0 -11 -11 -11 -25 0 -14 -4
-25 -9 -25 -5 0 -7 -13 -6 -30 1 -16 -3 -34 -9 -39 -6 -6 -13 -24 -14 -42 -1
-18 -6 -37 -11 -43 -4 -6 -6 -23 -5 -38 2 -15 -1 -30 -7 -33 -5 -4 -9 -26 -9
-51 0 -24 -4 -44 -8 -44 -4 0 -9 -21 -9 -46 -1 -25 -6 -51 -10 -57 -5 -7 -8
-18 -7 -24 1 -7 2 -16 3 -21 1 -10 301 -9 301 1 0 4 8 3 18 -2 11 -6 24 -6 32
-1 9 6 17 5 22 -3 6 -9 8 -8 8 2 0 11 3 11 17 0 9 -8 14 -9 10 -3 -4 7 8 11
37 10 24 -1 42 -5 39 -9 -3 -5 5 -4 17 3 15 8 20 8 16 1 -4 -6 -3 -11 3 -11 5
0 13 5 16 10 5 8 11 7 21 -1 11 -9 14 -8 14 2 0 10 3 10 12 1 8 -8 17 -8 31
-1 15 9 18 8 11 -3 -6 -11 -5 -11 9 1 13 10 17 10 17 1 0 -8 4 -9 13 -3 11 8
25 9 45 3 18 -6 38 -5 49 4 9 5 13 4 13 -4 0 -10 3 -10 15 0 8 7 15 9 15 4 0
-5 199 -9 447 -8 247 0 454 -2 461 -4 9 -3 8 -8 -5 -17 -14 -11 -15 -15 -4
-28 7 -9 10 -21 6 -27 -3 -5 0 -10 7 -10 10 0 10 -2 -1 -9 -8 -5 -9 -10 -3
-12 7 -3 6 -16 -2 -40 -13 -37 -14 -36 29 -41 11 -1 13 -4 5 -12 -8 -8 -277
-11 -887 -11 l-877 0 0 -77 c0 -55 -3 -78 -12 -78 -9 0 -12 -39 -13 -150 l-2
-150 28 -1 c15 0 359 -1 763 -2 l735 -2 -3 -24 c-3 -15 0 -21 8 -16 8 5 7 1
-1 -13 -10 -16 -10 -23 0 -35 8 -10 9 -17 1 -22 -5 -3 -10 -20 -10 -36 0 -22
4 -28 13 -23 8 6 8 3 -1 -9 -8 -9 -11 -20 -8 -25 3 -6 -1 -15 -9 -22 -8 -7
-15 -8 -15 -3 0 5 -16 9 -35 9 -19 -1 -35 -5 -35 -9 0 -5 -5 -5 -11 -1 -17 10
-168 10 -161 0 3 -6 -3 -6 -14 -2 -33 13 -54 15 -54 5 0 -6 -5 -7 -12 -3 -16
10 -68 11 -68 1 0 -5 -5 -5 -11 -1 -6 4 -45 7 -85 8 -59 1 -74 -2 -75 -14 -2
-48 4 -136 10 -145 5 -5 7 -33 6 -62 -1 -29 2 -50 7 -47 8 5 9 3 13 -43 1 -16
5 -35 9 -45 4 -9 9 -31 11 -50 2 -18 4 -33 5 -33 2 0 8 -37 12 -62 1 -7 6 -13
11 -13 5 0 7 -10 5 -23 -7 -36 12 -44 95 -43 42 1 77 -2 77 -7 0 -4 5 -5 11
-1 16 10 99 11 99 1 0 -4 8 -4 18 0 9 5 55 8 102 7 l85 0 0 -102 c0 -58 4
-102 9 -102 6 0 4 -6 -2 -12 -9 -9 -66 -13 -200 -14 -103 -1 -192 -2 -198 -3
-16 -2 -14 -33 4 -53 8 -10 11 -18 7 -18 -4 0 -1 -8 8 -18 10 -10 14 -22 10
-25 -3 -4 0 -7 7 -7 7 0 10 -3 7 -7 -4 -3 -1 -13 7 -22 8 -9 16 -20 17 -26 8
-36 12 -45 21 -45 6 0 7 -7 4 -15 -3 -9 1 -18 8 -21 13 -5 30 -40 27 -56 -1
-5 4 -8 9 -8 6 0 10 -9 10 -20 0 -11 9 -25 20 -32 11 -7 20 -20 20 -30 0 -9 5
-20 10 -23 6 -4 8 -10 5 -15 -3 -4 1 -10 9 -13 17 -7 48 -66 40 -78 -3 -5 1
-9 9 -9 12 0 31 -27 27 -38 -1 -2 8 -12 20 -22 12 -10 21 -22 21 -27 0 -4 11
-20 25 -35 13 -15 24 -32 24 -38 0 -5 9 -15 20 -22 11 -7 20 -16 20 -20 0 -12
23 -37 148 -165 61 -63 112 -120 112 -126 0 -5 2 -8 5 -5 3 3 29 -19 58 -48
29 -30 58 -54 65 -54 6 0 12 -4 12 -10 0 -5 7 -10 15 -10 8 0 15 -4 15 -8 0
-5 9 -18 20 -30 12 -12 18 -22 14 -22 -3 0 -1 -6 5 -14 9 -11 9 -20 2 -35 -8
-14 -8 -22 -1 -26 7 -4 7 -12 2 -18 -5 -7 -7 -24 -6 -38 2 -19 -7 -36 -30 -58
-31 -30 -34 -31 -50 -16 -9 9 -16 14 -16 10 0 -7 -14 5 -77 63 -25 23 -50 42
-55 42 -13 0 -98 88 -98 101 0 6 -4 7 -10 4 -5 -3 -10 -1 -10 5 0 6 -4 9 -8 6
-5 -3 -24 12 -43 34 -19 22 -39 40 -45 40 -7 0 -15 11 -18 24 -3 14 -15 28
-26 31 -11 3 -20 11 -20 17 0 6 -15 25 -33 42 -18 17 -46 49 -62 71 -16 22
-38 47 -47 56 -10 9 -18 21 -18 28 0 6 -4 11 -10 11 -5 0 -10 5 -10 11 0 7
-11 22 -24 34 -14 13 -23 25 -20 27 2 3 -5 13 -16 23 -11 10 -20 24 -20 32 0
7 -4 13 -10 13 -5 0 -10 6 -10 14 0 7 -10 24 -23 37 -13 13 -31 40 -40 60 -9
20 -23 42 -32 49 -8 7 -12 16 -9 21 3 5 0 9 -5 9 -6 0 -11 9 -11 20 0 11 -4
20 -10 20 -5 0 -10 9 -10 21 0 13 -4 18 -12 13 -7 -5 -9 -2 -5 8 3 9 0 21 -6
27 -7 7 -12 15 -12 19 -1 4 -10 25 -22 47 -11 22 -20 43 -19 46 0 4 -6 15 -15
25 -9 11 -15 27 -14 36 2 9 -3 19 -11 22 -7 3 -11 12 -8 21 3 8 2 15 -3 15
-13 0 -36 68 -27 81 4 8 3 9 -4 5 -7 -4 -13 7 -18 29 -3 19 -10 35 -16 35 -5
0 -7 4 -4 9 4 5 2 11 -4 13 -5 1 -11 17 -13 33 -3 28 -6 38 -26 90 -5 11 -7
28 -5 38 1 9 -4 17 -11 17 -9 0 -12 8 -9 24 2 14 0 28 -6 31 -5 3 -10 24 -10
45 0 21 -4 41 -8 44 -5 3 -9 20 -10 37 0 18 -4 35 -9 38 -4 3 -9 26 -10 50 -1
24 -6 47 -10 50 -5 3 -9 22 -10 41 -3 67 -8 100 -15 100 -4 0 -3 13 2 29 4 16
5 32 2 36 -4 4 -7 10 -8 13 0 4 -4 15 -8 25 -5 9 -6 23 -3 30 9 25 -9 38 -56
41 -29 1 -44 -1 -40 -7 4 -7 -1 -8 -13 -3 -33 13 -54 15 -54 5 0 -6 -5 -7 -12
-3 -16 10 -68 11 -68 1 0 -5 -5 -5 -11 -1 -17 10 -168 10 -161 0 3 -6 -3 -6
-14 -2 -33 13 -54 15 -54 5 0 -6 -5 -7 -11 -3 -6 4 -48 6 -93 5 -101 -2 -106
-2 -100 -13 3 -4 -3 -8 -12 -8 -16 0 -16 -1 -1 -12 10 -9 15 -25 14 -48 -2
-19 2 -46 8 -60 7 -14 11 -44 10 -67 -1 -24 1 -43 5 -43 8 0 9 -6 12 -87 1
-35 6 -63 10 -63 4 0 8 -18 8 -40 0 -22 4 -40 9 -40 5 0 9 -19 8 -42 0 -24 4
-52 9 -63 6 -11 10 -33 9 -50 -1 -16 2 -35 6 -40 4 -6 10 -22 12 -35 3 -14 11
-45 18 -70 7 -25 13 -54 14 -65 1 -11 7 -30 13 -43 7 -12 10 -26 7 -31 -3 -5
-1 -11 5 -13 6 -2 12 -12 14 -23 2 -11 10 -33 17 -50 6 -16 13 -36 15 -44 1
-8 7 -17 12 -20 5 -3 8 -16 7 -29 -1 -14 3 -21 10 -18 8 3 11 -5 9 -20 -1 -13
2 -24 7 -24 6 0 7 -4 4 -10 -3 -5 -2 -10 4 -10 6 0 8 -7 5 -15 -4 -8 -1 -15 6
-15 6 0 9 -4 5 -9 -3 -5 2 -17 11 -26 9 -9 14 -19 11 -22 -3 -3 0 -12 8 -19 8
-8 12 -21 9 -29 -4 -8 -1 -15 5 -15 6 0 11 -9 11 -20 0 -11 5 -20 10 -20 6 0
10 -9 10 -20 0 -11 8 -28 18 -37 9 -10 17 -25 17 -33 -1 -8 7 -30 17 -47 10
-18 14 -33 10 -33 -4 0 -2 -4 3 -8 15 -10 35 -49 35 -67 0 -8 5 -15 10 -15 6
0 10 -7 10 -15 0 -8 5 -15 10 -15 6 0 10 -7 10 -15 0 -8 5 -15 11 -15 5 0 8
-4 5 -9 -3 -5 1 -14 9 -21 8 -7 15 -19 15 -26 0 -8 4 -14 10 -14 5 0 9 -3 7
-8 -3 -12 40 -62 47 -54 4 3 4 -1 1 -9 -3 -9 3 -23 15 -34 11 -10 20 -24 20
-31 0 -7 8 -19 18 -26 9 -7 18 -20 20 -28 2 -8 10 -19 18 -23 8 -5 12 -12 9
-16 -2 -5 9 -21 25 -37 16 -16 30 -34 30 -41 0 -6 8 -18 18 -25 9 -7 23 -26
30 -41 6 -15 19 -30 27 -33 8 -4 15 -15 15 -25 0 -10 6 -19 14 -19 8 0 18 -9
21 -20 3 -11 10 -20 14 -20 4 0 13 -11 19 -25 6 -14 18 -25 27 -25 8 0 15 -7
15 -15 0 -8 6 -15 14 -15 8 0 18 -9 21 -20 3 -11 11 -20 16 -20 5 0 9 -4 9
-10 0 -13 43 -56 53 -52 4 1 7 -3 7 -9 0 -6 16 -26 35 -43 19 -18 32 -36 28
-41 -5 -4 -3 -5 3 -2 6 4 23 -8 38 -25 14 -18 26 -28 26 -22 0 5 8 -3 18 -19
10 -15 22 -24 25 -20 4 3 7 1 7 -5 0 -7 4 -12 10 -12 5 0 32 -23 60 -50 28
-28 56 -50 63 -50 7 0 21 -14 32 -30 13 -19 28 -30 44 -30 13 0 22 -3 19 -6
-9 -8 35 -51 48 -47 6 2 21 -10 34 -26 12 -17 27 -28 31 -25 12 7 40 -21 31
-31 -4 -5 0 -6 9 -2 10 3 26 -4 39 -18 13 -14 27 -22 31 -19 5 2 14 -4 21 -16
7 -11 21 -20 30 -20 9 0 21 -6 25 -13 19 -30 63 -40 173 -40 61 0 113 3 117 6
3 4 14 2 24 -4 14 -7 19 -6 19 3 0 10 2 10 9 -1 7 -10 10 -10 13 -1 3 10 9 10
25 1 18 -9 24 -8 32 6 6 10 11 12 11 6 0 -13 47 -12 69 1 6 4 11 2 11 -4 0 -6
5 -8 12 -4 15 10 478 11 484 2 3 -5 15 -3 26 3 11 6 23 7 27 3 7 -11 37 -12
47 -2 3 4 15 3 25 -2 10 -6 20 -6 23 -2 6 10 217 9 233 -1 6 -4 13 -2 15 4 3
9 9 9 25 1 16 -9 22 -9 25 -1 3 8 10 5 21 -5 9 -10 15 -22 12 -27 -4 -5 -2 -9
4 -9 6 0 6 -11 1 -30 -5 -16 -5 -30 0 -30 4 0 5 -15 1 -33 -5 -18 -5 -41 -1
-52 4 -11 3 -28 -2 -38 -8 -16 -22 -18 -109 -16 -55 1 -102 -1 -106 -4 -3 -4
-14 -2 -24 4 -11 5 -19 6 -19 2 0 -4 -43 -6 -96 -3 -53 3 -98 2 -101 -3 -2 -4
-13 -2 -24 3 -10 6 -19 7 -19 3 0 -4 -43 -6 -96 -3 -53 3 -98 2 -101 -3 -2 -4
-13 -2 -24 3 -10 6 -19 7 -19 3 0 -4 -58 -7 -130 -6 -119 2 -168 -7 -126 -23
9 -3 16 -12 16 -19 0 -7 10 -11 25 -10 14 2 25 0 25 -4 0 -9 82 -45 103 -44 9
0 17 -4 17 -8 0 -5 6 -9 14 -9 7 0 19 -7 26 -15 9 -10 17 -12 30 -5 13 7 21 5
30 -5 7 -9 15 -13 18 -11 2 3 16 -1 31 -8 14 -7 33 -12 41 -11 8 0 21 -5 28
-12 7 -7 19 -10 26 -7 8 3 17 1 21 -5 3 -6 17 -11 31 -11 13 0 24 -4 24 -9 0
-5 14 -9 31 -9 17 1 34 -4 38 -10 4 -7 17 -10 29 -7 12 2 27 -2 34 -9 7 -7 23
-12 36 -11 12 1 22 -2 22 -6 0 -4 19 -9 43 -12 23 -2 53 -8 67 -11 14 -4 32
-9 40 -11 8 -2 15 -4 15 -5 0 -2 19 -3 43 -4 24 -1 47 -7 50 -12 4 -6 25 -9
47 -8 22 1 43 -3 46 -8 4 -6 34 -10 68 -9 39 0 60 -3 56 -10 -4 -6 24 -9 78
-8 47 1 91 -3 99 -7 17 -11 717 -13 724 -2 3 4 29 8 59 8 30 0 56 4 59 9 3 5
32 10 63 11 32 1 65 2 73 2 8 0 21 5 28 11 6 5 12 6 12 3 0 -4 8 -2 18 3 16 8
17 39 17 433 0 239 3 426 9 429 5 4 5 13 0 20 -4 8 -8 43 -9 79 l0 65 -38 -2
c-28 -2 -36 1 -31 10 6 9 4 9 -8 -1 -9 -7 -27 -11 -40 -8 -14 2 -31 0 -38 -4
-9 -6 -19 -2 -28 8 -7 9 -10 11 -6 3 5 -10 3 -13 -9 -8 -9 3 -18 1 -21 -6 -5
-9 -7 -9 -12 0 -3 7 -14 9 -32 4 -15 -5 -37 -4 -50 0 -15 6 -22 5 -22 -4 0 -8
-4 -6 -10 3 -5 8 -10 11 -10 5 0 -6 -127 -10 -360 -10 -198 0 -360 4 -360 8 0
4 -8 3 -18 -2 -10 -5 -24 -6 -31 -2 -7 5 -22 6 -33 3 -11 -3 -24 1 -29 9 -7
11 -9 10 -9 -5 0 -20 0 -20 -16 0 -8 10 -13 13 -9 6 5 -9 -1 -11 -22 -7 -15 4
-34 6 -40 6 -16 -1 -38 -1 -78 0 l-30 1 1 100 c1 54 4 102 8 105 3 4 461 7
1018 7 l1012 1 0 198 1 199 26 21 c52 45 92 72 101 69 5 -1 7 1 4 6 -5 9 38
53 51 51 4 0 10 8 14 18 4 10 8 16 10 13 1 -3 3 -135 4 -295 1 -159 3 -293 4
-297 2 -16 91 17 91 33 0 4 10 11 22 15 13 4 28 14 35 23 6 9 15 16 20 16 13
1 57 27 78 47 11 11 24 19 28 18 5 -1 18 9 31 22 12 13 27 24 34 25 6 2 25 16
42 33 17 16 37 30 45 30 7 0 17 9 20 21 4 11 9 18 11 16 3 -3 23 13 44 35 22
21 40 36 40 32 0 -4 11 3 25 16 14 13 25 30 25 37 0 8 4 12 8 9 9 -6 48 35 44
47 -1 4 5 7 13 7 8 0 15 4 15 10 0 5 15 25 34 44 18 20 31 37 29 40 -2 2 5 7
16 11 11 3 23 15 26 26 4 11 9 18 13 15 8 -9 34 33 27 44 -3 6 -1 10 5 10 14
0 58 47 65 71 4 11 11 19 16 19 5 0 14 11 19 25 5 14 15 25 21 25 7 0 9 3 6 7
-4 3 2 13 13 20 11 8 18 19 15 24 -4 5 -1 9 4 9 6 0 11 7 11 15 0 8 5 15 10
15 6 0 10 7 10 15 0 7 6 18 14 22 8 4 16 15 18 23 2 8 10 20 18 27 19 15 41
14 -372 16 -213 1 -327 6 -325 12 1 5 5 9 10 8 6 -3 12 38 8 60 -1 5 3 6 9 2
5 -3 10 -2 10 4 0 5 10 31 22 58 12 26 21 51 20 56 -1 4 3 7 8 7 5 0 9 3 9 8
-3 18 3 21 24 13 13 -5 30 -5 39 0 10 6 19 6 23 0 3 -7 15 -7 30 -1 15 6 27 6
30 0 3 -5 12 -7 20 -4 22 9 116 11 121 3 2 -4 18 -4 35 1 19 6 39 6 50 0 9 -6
24 -7 33 -4 23 9 117 11 122 3 2 -4 18 -4 34 1 18 5 32 5 36 -1 3 -5 10 -6 16
-3 6 4 37 6 69 5 58 -1 64 2 60 37 -1 6 2 12 7 12 9 0 25 37 23 53 -1 4 6 10
14 13 8 3 13 10 10 14 -3 5 1 15 9 23 8 8 12 18 8 22 -4 3 0 12 8 18 8 7 16
23 18 37 1 13 8 28 15 32 6 4 8 8 3 8 -5 0 -3 6 3 14 6 8 11 18 9 22 -1 5 6
24 16 42 9 19 19 46 21 60 1 15 4 28 5 30 1 1 4 7 5 12 1 6 4 12 5 15 1 3 3 9
4 14 0 5 4 13 9 17 4 4 7 18 7 30 0 13 4 25 8 28 5 3 8 20 7 38 -1 18 4 39 11
46 7 7 11 19 8 27 -4 8 -1 15 6 15 6 0 9 4 6 8 -3 4 0 26 5 48 6 21 12 63 13
92 2 30 7 57 12 60 5 4 9 27 9 52 -1 25 2 56 7 68 9 25 17 135 10 128 -2 -3
-15 -1 -28 4 -16 6 -24 6 -24 -1 0 -6 -5 -7 -11 -3 -16 10 -549 11 -549 1 0
-5 -6 -5 -12 -1 -18 11 -48 12 -48 2 0 -5 -5 -6 -11 -2 -7 4 -58 7 -115 7 -58
0 -107 4 -110 9 -3 4 -2 8 3 7 4 -1 11 0 16 1 15 5 27 8 45 9 13 1 14 3 4 10
-11 6 -10 10 3 15 12 4 14 10 7 19 -5 6 -9 44 -8 82 l1 70 48 2 c27 1 55 4 63
7 8 3 14 2 14 -2 0 -4 61 -6 136 -4 99 2 141 -1 152 -10 12 -10 14 -10 8 0 -4
6 -3 12 1 12 5 0 15 -6 22 -12 11 -10 12 -10 7 -1 -5 10 10 13 63 12 38 -1 74
2 80 6 6 3 11 3 11 -2 0 -4 35 -7 77 -6 43 1 100 2 126 3 l48 0 -4 243 c-5
253 -13 377 -25 387 -4 3 -7 23 -6 45 0 22 -4 48 -9 58 -5 11 -10 35 -11 55
l-2 37 -207 -1 c-114 0 -207 2 -207 4 0 3 8 11 17 18 14 9 21 10 32 1 12 -9
13 -9 7 1 -5 8 -1 12 13 12 13 0 18 6 16 18 -1 9 2 22 7 29 5 7 5 14 -1 17
-10 6 -4 44 11 62 5 8 3 18 -7 28 -15 15 -15 16 0 16 9 0 13 5 10 10 -7 11 6
12 125 12 57 0 78 4 88 17 7 9 11 10 7 4 -4 -9 -1 -11 9 -7 18 7 22 24 6 24
-5 0 -10 8 -10 18 0 17 -17 71 -41 127 -7 17 -13 32 -14 35 -1 3 -6 20 -10 38
-4 17 -11 32 -16 32 -7 0 -23 35 -24 55 -1 6 -6 20 -13 33 -7 12 -9 22 -5 22
4 0 3 4 -3 8 -14 9 -49 74 -46 85 1 4 -5 15 -13 23 -8 9 -12 20 -9 26 4 6 2 8
-3 5 -6 -4 -16 6 -22 23 -5 17 -15 30 -20 30 -6 0 -8 6 -5 14 3 7 -2 16 -11
20 -9 3 -14 10 -11 14 3 5 -2 18 -12 28 -28 33 -43 64 -36 77 4 7 4 9 -1 5
-10 -9 -35 16 -35 35 0 8 -7 17 -15 21 -8 3 -15 12 -15 19 0 8 -7 20 -15 27
-8 7 -13 16 -10 20 2 4 -5 16 -15 28 -11 12 -20 26 -20 32 0 5 -4 10 -10 10
-5 0 -10 7 -10 16 0 8 -4 13 -8 10 -5 -3 -15 7 -23 21 -14 27 -387 407 -402
410 -5 1 -23 14 -40 30 -18 15 -44 34 -59 42 -16 8 -28 20 -28 27 0 8 -6 11
-17 7 -10 -4 -14 -2 -10 4 6 9 -26 26 -36 20 -2 -1 -15 10 -31 26 -15 15 -31
25 -35 23 -4 -3 -15 6 -25 20 -11 13 -24 24 -31 24 -7 0 -18 7 -25 15 -6 8
-15 14 -18 14 -17 -2 -52 14 -52 24 0 6 -3 7 -7 4 -3 -4 -17 0 -29 8 -13 8
-25 11 -27 7 -2 -4 -4 -45 -3 -92 1 -47 -2 -93 -6 -102 -5 -9 -5 -19 -1 -21 7
-4 8 -115 4 -242 -1 -16 -1 -88 -2 -160 0 -158 1 -148 -16 -163 -10 -10 -13
-10 -13 3 0 16 -43 30 -87 28 -13 0 -23 4 -23 8 0 12 -57 11 -65 -1 -8 -13
-25 -13 -25 1 0 5 5 7 12 3 8 -5 8 -3 2 7 -5 8 -10 172 -10 364 -1 193 -2 359
-3 370 -1 20 -8 20 -763 20 l-762 0 0 648 0 647 -138 0 c-76 0 -138 -4 -138
-8z m446 -2119 c-3 -4 0 -13 7 -21 7 -10 8 -13 1 -9 -15 9 -14 -45 1 -55 7 -5
7 -8 0 -8 -12 0 -13 -46 -2 -57 4 -3 0 -14 -9 -24 -12 -13 -12 -19 -3 -25 8
-5 10 -3 4 6 -5 9 -4 11 4 6 8 -6 9 -12 2 -20 -6 -7 -9 -32 -7 -54 3 -30 1
-40 -7 -35 -7 4 -4 -6 7 -21 10 -16 13 -26 8 -22 -14 9 -14 -92 1 -119 9 -17
8 -18 -5 -8 -12 10 -15 10 -15 -2 0 -8 3 -15 6 -15 3 0 6 -13 7 -30 1 -19 -3
-27 -10 -23 -6 4 -3 -4 6 -19 9 -14 14 -29 10 -33 -11 -10 -9 -49 3 -57 6 -5
5 -8 -3 -8 -10 0 -10 -5 -2 -20 6 -11 9 -21 8 -21 -2 -1 -76 -2 -164 -3 -94
-1 -167 -6 -175 -12 -8 -5 -24 -9 -36 -8 -12 0 -20 -3 -17 -7 3 -5 -2 -9 -10
-9 -9 0 -24 -8 -34 -18 -17 -17 -56 -37 -58 -30 -1 2 -18 -14 -38 -34 -21 -21
-42 -38 -46 -38 -5 0 -7 -10 -5 -21 3 -12 2 -19 -1 -16 -8 7 -54 -47 -54 -62
0 -6 -5 -11 -12 -11 -6 0 -8 -3 -5 -7 4 -3 0 -15 -10 -25 -9 -10 -13 -18 -9
-18 3 0 0 -13 -8 -29 -9 -16 -12 -31 -9 -35 4 -3 1 -6 -5 -6 -7 0 -12 -7 -12
-16 0 -9 5 -12 13 -8 6 4 3 -2 -7 -14 -11 -12 -14 -22 -9 -22 9 0 9 -25 2 -67
-1 -4 0 -10 1 -13 7 -19 12 -49 13 -72 0 -15 4 -25 8 -22 5 3 10 -3 11 -13 3
-44 17 -75 29 -67 5 3 9 -2 9 -12 0 -9 9 -25 21 -35 12 -10 18 -23 13 -30 -4
-7 -3 -9 3 -6 6 4 19 -5 29 -18 10 -14 23 -25 29 -25 6 0 16 -9 23 -21 7 -12
16 -18 19 -15 3 3 19 -6 35 -19 16 -14 34 -23 39 -19 5 3 9 1 9 -5 0 -5 8 -8
18 -7 9 2 20 -2 24 -8 5 -7 90 -11 270 -11 145 0 269 -4 276 -8 6 -5 12 -5 12
0 0 7 115 10 123 3 9 -7 57 -4 57 5 0 7 3 7 8 0 6 -9 41 -12 57 -5 10 4 50 3
65 -3 8 -3 40 -8 70 -11 92 -8 190 -33 190 -47 0 -5 6 -6 14 -3 7 3 20 -1 27
-9 8 -7 29 -19 47 -25 36 -12 89 -47 136 -89 8 -7 16 -9 20 -6 3 4 6 -1 6 -10
0 -9 6 -17 14 -17 7 0 21 -11 32 -24 10 -14 21 -23 24 -21 3 2 17 -14 30 -36
14 -21 30 -39 36 -39 6 0 16 -11 22 -25 6 -14 16 -25 22 -25 6 0 9 -4 6 -8 -3
-5 4 -18 14 -30 11 -12 20 -26 20 -31 0 -5 9 -17 21 -25 12 -8 18 -19 15 -24
-3 -6 1 -17 9 -25 8 -9 15 -21 15 -27 0 -6 4 -8 10 -5 5 3 7 0 4 -8 -3 -8 0
-18 5 -22 6 -3 9 -11 6 -16 -4 -5 -2 -9 2 -9 5 0 9 -8 10 -17 2 -27 8 -46 20
-67 6 -10 8 -27 6 -36 -3 -10 0 -21 6 -24 6 -4 11 -34 11 -66 0 -32 4 -61 9
-64 10 -7 12 -326 2 -326 -4 0 -9 -26 -10 -57 -1 -32 -6 -60 -11 -63 -5 -3 -8
-24 -5 -47 3 -29 0 -43 -10 -47 -8 -3 -12 -14 -10 -26 2 -12 -2 -23 -10 -26
-7 -3 -11 -12 -9 -19 3 -7 -11 -44 -30 -81 -20 -37 -36 -73 -36 -81 0 -7 -8
-13 -17 -13 -12 0 -14 -3 -6 -8 8 -5 1 -19 -23 -46 -19 -21 -32 -42 -29 -46 3
-5 -4 -11 -15 -15 -11 -4 -18 -11 -15 -16 4 -5 -1 -9 -10 -9 -9 0 -13 -5 -10
-10 7 -11 -123 -147 -136 -143 -4 2 -25 -15 -45 -37 -21 -22 -43 -40 -50 -40
-6 0 -19 -9 -29 -20 -10 -12 -25 -18 -32 -16 -7 3 -13 -1 -13 -9 0 -8 -11 -17
-25 -21 -14 -3 -25 -11 -25 -16 0 -6 -7 -8 -15 -4 -9 3 -15 0 -15 -10 0 -8 -4
-13 -9 -10 -10 6 -61 -16 -61 -26 0 -5 -7 -8 -15 -8 -9 0 -27 -7 -41 -17 -14
-9 -35 -17 -47 -18 -12 -1 -30 -5 -39 -9 -9 -4 -25 -9 -35 -11 -10 -2 -18 -4
-18 -5 0 -1 -16 -4 -35 -7 -19 -2 -37 -8 -40 -12 -4 -5 -336 -7 -374 -2 -4 0
-5 13 -2 27 5 19 4 24 -6 18 -11 -6 -11 -5 0 8 14 17 13 39 -3 50 -6 5 -5 8 3
8 15 0 13 41 -3 52 -5 4 -1 8 10 8 15 0 17 2 6 9 -8 5 -11 16 -8 25 4 9 1 16
-6 17 -7 0 -3 4 8 9 11 5 15 9 9 9 -13 1 -25 36 -16 45 3 3 6 19 7 36 2 20 -1
27 -9 23 -8 -5 -8 -3 0 8 14 18 14 49 0 49 -5 0 -2 6 9 13 13 10 15 16 6 21
-6 4 -9 12 -6 17 4 5 0 9 -7 9 -8 0 -6 5 5 11 14 8 16 14 6 25 -6 8 -8 14 -4
14 4 0 1 8 -6 17 -12 14 -12 16 0 8 11 -6 13 -4 8 8 -3 10 -2 17 4 17 6 0 7 6
3 12 -12 19 -12 48 0 48 6 0 2 7 -8 15 -11 9 -14 15 -7 15 9 0 11 11 8 34 -6
41 8 59 35 45 10 -5 18 -6 18 -2 0 4 47 6 106 5 58 -2 113 0 122 4 9 4 26 8
37 9 11 1 38 10 60 20 22 10 43 17 48 17 4 -1 7 2 7 8 0 5 9 10 21 10 12 0 17
4 14 11 -4 6 2 13 14 16 11 3 18 9 15 14 -3 5 2 9 10 9 18 0 56 34 56 50 0 6
7 10 16 10 8 0 12 5 9 11 -4 6 1 17 11 24 11 8 15 15 10 15 -5 0 -2 8 7 18 8
9 17 22 18 27 8 35 12 45 19 45 4 0 7 14 8 32 0 17 5 34 9 37 11 7 11 144 1
151 -4 3 -9 16 -11 28 -2 12 -6 25 -10 28 -4 4 -7 17 -7 28 0 12 -9 28 -19 36
-11 7 -18 17 -16 21 6 9 -105 121 -138 138 -15 8 -27 18 -27 22 0 5 -7 6 -15
3 -8 -3 -24 1 -36 9 -12 9 -28 13 -35 10 -8 -3 -20 -1 -27 5 -8 6 -177 10
-469 10 -294 -1 -462 3 -470 9 -7 6 -21 9 -30 8 -9 -2 -22 3 -28 10 -6 7 -20
10 -32 7 -14 -3 -19 -1 -14 6 5 8 -2 12 -18 12 -14 0 -26 5 -26 10 0 6 -8 10
-18 10 -10 0 -22 3 -26 8 -4 4 -11 7 -16 7 -5 0 -17 11 -29 23 -11 13 -24 21
-30 18 -5 -4 -12 2 -16 13 -4 13 -13 18 -25 16 -12 -2 -20 2 -20 10 0 7 -4 15
-9 17 -14 5 -94 71 -125 103 -16 17 -33 29 -38 27 -4 -1 -7 2 -6 7 2 5 -8 18
-21 30 -13 12 -20 21 -16 21 5 0 -2 12 -16 28 -41 44 -81 102 -83 120 -2 9 -8
18 -14 20 -6 2 -8 10 -5 18 3 8 1 14 -4 14 -11 0 -46 73 -46 95 0 8 -4 15 -9
15 -5 0 -7 4 -3 9 3 5 1 12 -5 16 -6 4 -8 10 -5 15 3 4 -2 13 -10 20 -11 9
-12 16 -5 25 8 9 8 15 0 20 -6 3 -8 11 -5 16 4 5 1 9 -4 9 -6 0 -11 9 -11 20
0 11 -4 20 -9 20 -4 0 -8 15 -8 33 -1 67 -3 88 -10 84 -5 -3 -7 61 -7 141 2
180 2 175 14 167 6 -3 10 -1 10 4 0 6 -5 11 -11 11 -5 0 -7 5 -3 12 4 7 8 24
9 38 2 30 12 74 28 115 6 17 12 35 12 40 1 6 7 24 15 40 7 17 12 36 11 43 -1
6 3 12 9 12 5 0 10 6 10 14 0 8 7 22 16 30 9 9 17 22 18 29 1 6 6 19 11 27 5
8 10 22 12 30 1 8 12 23 24 32 11 10 18 18 15 18 -4 0 2 10 14 22 11 12 20 25
20 30 0 17 136 158 152 158 5 0 6 5 3 10 -3 6 -1 10 4 10 6 0 24 13 39 30 16
16 32 27 35 23 4 -3 7 -1 7 6 0 7 5 9 10 6 6 -3 10 0 10 8 0 7 18 22 39 33 22
10 37 22 35 25 -3 6 30 18 53 20 5 0 12 7 16 15 5 8 12 12 18 9 5 -4 9 -1 9 4
0 6 9 11 20 11 11 0 20 4 20 9 0 5 14 11 30 15 43 8 44 8 58 23 8 7 17 11 22
8 4 -3 20 1 35 9 15 8 34 12 43 9 10 -5 13 -2 8 6 -5 8 -3 12 5 10 31 -4 80 2
76 9 -3 4 16 8 41 9 62 2 92 6 92 13 0 3 56 5 125 5 76 0 125 4 125 10 0 6 5
2 11 -8 6 -10 8 -21 5 -24z"/>
<path d="M5139 9228 c-1 -7 -1 -16 0 -20 0 -5 -4 -8 -10 -8 -6 0 -7 -5 -2 -12
4 -7 8 -238 9 -513 l0 -500 659 0 659 0 1 423 0 423 -29 15 c-16 7 -37 14 -47
14 -10 0 -20 4 -24 9 -3 6 -14 8 -25 6 -11 -2 -20 2 -20 9 0 7 -12 11 -30 10
-17 -1 -33 2 -36 7 -3 5 -18 9 -34 9 -16 0 -31 4 -34 9 -4 5 -18 8 -32 6 -14
-1 -31 3 -37 9 -7 7 -25 11 -42 10 -16 -1 -39 3 -50 9 -11 6 -35 10 -52 8 -18
-1 -33 3 -33 9 0 5 -20 10 -45 10 -25 0 -45 4 -45 8 0 4 -21 8 -47 9 -25 1
-49 6 -52 11 -3 4 -34 8 -68 7 -35 -1 -63 1 -63 5 0 8 -2 8 -105 15 -206 15
-365 16 -366 3z"/>
<path d="M6683 8910 c-3 -11 -8 -20 -12 -20 -3 0 -6 -149 -6 -330 0 -282 2
-332 15 -340 10 -7 11 -10 2 -10 -10 0 -10 -4 0 -20 7 -11 18 -20 25 -20 7 0
13 -4 13 -10 0 -5 7 -10 15 -10 8 0 15 -4 15 -10 0 -6 3 -9 8 -9 14 3 72 -23
72 -33 0 -5 5 -6 10 -3 6 3 10 1 10 -5 0 -6 4 -9 9 -6 5 3 12 -1 15 -10 4 -9
9 -14 12 -11 3 3 21 -3 39 -13 18 -10 43 -24 56 -32 13 -7 27 -17 31 -23 5 -7
8 -7 8 0 0 6 3 6 8 0 12 -18 65 -49 57 -34 -5 8 1 5 12 -6 11 -11 18 -24 15
-29 -3 -5 1 -6 8 -1 8 5 17 2 24 -7 6 -8 13 -15 16 -15 19 0 49 -16 45 -24 -4
-5 1 -9 9 -9 8 0 22 -8 32 -17 10 -10 22 -18 28 -18 6 -1 10 -6 9 -13 -2 -7 4
-12 12 -12 8 0 15 -7 15 -16 0 -9 6 -14 13 -11 6 2 23 -9 37 -24 32 -38 59
-36 100 7 19 19 47 47 62 61 15 14 25 30 21 36 -3 6 -1 7 4 4 6 -4 19 6 28 21
10 15 38 47 62 71 23 24 43 48 43 53 0 5 5 6 12 2 7 -5 9 -2 5 9 -4 10 1 18
14 22 10 4 19 10 19 14 0 11 83 96 91 94 3 -1 6 11 5 27 -1 15 -3 26 -5 24 -2
-2 -17 9 -32 25 -15 16 -29 27 -32 25 -2 -2 -18 9 -35 26 -18 16 -37 30 -42
30 -6 0 -8 5 -5 10 3 6 -1 10 -9 10 -9 0 -16 5 -16 12 0 6 -3 9 -6 5 -3 -3
-18 6 -33 21 -37 37 -70 62 -79 62 -4 0 -13 9 -20 20 -7 11 -17 20 -23 20 -11
0 -31 15 -57 43 -9 9 -20 17 -25 17 -10 0 -71 42 -75 53 -2 4 -8 5 -13 1 -5
-3 -9 2 -9 10 0 9 -7 16 -15 16 -8 0 -15 5 -15 10 0 6 -7 10 -15 10 -8 0 -15
5 -15 12 0 6 -3 8 -6 5 -4 -4 -14 2 -23 12 -9 10 -24 17 -33 15 -10 -1 -18 4
-18 12 0 9 -4 13 -9 10 -5 -3 -14 1 -21 9 -7 8 -17 15 -23 15 -5 0 -16 8 -24
18 -8 10 -11 11 -7 2 7 -12 5 -13 -8 -3 -8 7 -18 10 -21 6 -4 -3 -7 2 -7 11 0
12 -5 16 -15 12 -9 -3 -18 1 -21 9 -4 8 -10 12 -16 9 -5 -3 -15 1 -21 10 -7 9
-23 18 -37 21 -14 3 -26 9 -28 15 -2 6 -8 8 -13 4 -5 -3 -9 2 -9 11 0 9 -5 13
-10 10 -12 -7 -70 16 -70 27 0 5 -7 8 -16 8 -8 0 -13 4 -10 9 4 5 -2 8 -11 7
-10 -2 -33 3 -51 11 -31 13 -34 13 -39 -7z"/>
<path d="M8386 7475 c-3 -9 -11 -13 -16 -10 -6 4 -10 3 -9 -2 3 -20 -2 -34
-11 -28 -5 3 -10 2 -10 -3 0 -5 -12 -22 -26 -38 -15 -16 -23 -22 -19 -14 5 8
-8 -2 -28 -22 -19 -21 -40 -38 -46 -38 -6 0 -11 -6 -11 -14 0 -8 -9 -18 -21
-21 -11 -4 -18 -9 -15 -12 10 -10 -25 -35 -40 -29 -11 4 -15 2 -11 -8 3 -8 -1
-20 -9 -26 -8 -7 -14 -10 -14 -7 0 3 -35 -29 -77 -70 -66 -64 -78 -80 -76
-106 1 -17 9 -34 17 -39 9 -5 16 -18 16 -28 0 -11 4 -20 10 -20 5 0 12 -11 16
-25 3 -14 10 -25 15 -25 5 0 9 -9 9 -19 0 -10 7 -21 15 -25 8 -3 12 -12 9 -21
-3 -8 -1 -15 6 -15 6 0 9 -4 6 -9 -3 -5 1 -14 9 -21 8 -7 12 -16 9 -21 -3 -5
2 -12 10 -15 9 -3 14 -10 11 -14 -7 -11 5 -41 14 -36 4 3 7 -3 7 -12 1 -25 8
-46 17 -53 5 -3 10 -12 12 -20 8 -37 18 -59 26 -59 5 0 6 -6 3 -14 -3 -8 0
-17 6 -21 9 -6 9 -10 -1 -16 -11 -7 -11 -9 1 -9 8 0 20 -11 27 -25 8 -19 8
-23 0 -18 -7 4 -6 -1 2 -10 7 -9 10 -17 6 -17 -5 0 0 -9 10 -20 10 -11 15 -20
10 -20 -4 0 -3 -6 2 -12 5 -7 10 -26 12 -43 2 -16 6 -32 11 -35 4 -3 6 -13 4
-22 -1 -10 2 -18 7 -18 6 0 7 -4 4 -10 -3 -5 -2 -10 3 -10 5 0 8 -12 7 -27 0
-16 5 -39 11 -52 7 -14 11 -28 8 -33 -3 -4 0 -8 5 -8 6 0 11 -18 11 -40 0 -22
4 -40 9 -40 4 0 8 -8 8 -17 0 -51 4 -74 11 -69 5 3 8 -17 8 -44 -1 -28 2 -50
6 -50 4 0 7 -3 7 -7 -1 -5 0 -10 1 -13 1 -3 3 -29 3 -58 1 -29 7 -56 14 -60 8
-5 9 -13 3 -22 -5 -8 -5 -21 1 -32 7 -12 6 -18 -1 -18 -7 0 -8 -6 0 -19 7 -14
7 -22 0 -26 -6 -4 -7 -11 -3 -18 10 -16 10 -57 0 -57 -4 0 -5 -6 0 -12 10 -16
10 -36 1 -70 -3 -16 -2 -30 3 -34 6 -3 8 -12 5 -20 -3 -7 -1 -16 4 -19 5 -3 5
-18 0 -35 -5 -19 -5 -28 1 -25 5 4 9 2 9 -4 0 -5 -5 -11 -11 -13 -9 -3 -9 -9
-1 -25 9 -16 9 -23 -1 -26 -9 -4 -9 -6 1 -6 6 -1 12 -6 12 -12 0 -5 -6 -7 -12
-3 -9 5 -9 2 1 -9 7 -9 10 -17 5 -17 -5 0 -10 -15 -10 -33 -1 -17 -3 -56 -6
-84 -2 -29 -1 -53 2 -53 8 0 3 -67 -5 -80 -3 -5 -1 -12 5 -15 7 -4 7 -11 2
-18 -5 -7 -8 -20 -7 -30 2 -9 -1 -15 -5 -12 -5 3 -7 -25 -6 -62 2 -38 -1 -71
-7 -74 -5 -4 -10 -33 -11 -65 0 -33 -4 -61 -8 -64 -4 -3 -8 -20 -10 -38 -1
-18 -5 -32 -9 -32 -12 0 -16 -59 -5 -70 7 -7 6 -10 -2 -10 -6 0 -14 -17 -17
-37 -4 -21 -9 -45 -12 -53 -4 -8 -7 -30 -8 -48 -2 -17 -8 -39 -14 -46 -10 -12
-8 -18 11 -29 19 -13 77 -15 340 -15 l317 0 11 29 c7 16 17 26 22 23 6 -4 5 3
-1 15 -9 17 -9 22 2 27 9 3 13 19 12 42 0 20 3 42 7 48 5 7 10 25 11 42 1 16
6 28 11 24 5 -3 7 2 3 10 -3 9 1 25 8 36 8 10 11 22 8 26 -11 11 -12 36 -2 36
5 0 9 29 9 65 0 45 4 65 13 65 8 0 7 4 -3 10 -8 5 -10 10 -4 10 7 0 12 22 13
56 0 32 7 64 13 72 11 13 11 14 -1 7 -10 -6 -12 -4 -5 6 4 8 9 51 9 96 1 55 6
87 15 99 9 11 10 15 3 10 -7 -4 -13 -3 -13 3 0 5 3 12 8 14 9 6 7 481 -3 527
-4 19 -8 63 -9 98 -1 35 -6 66 -11 70 -6 4 -10 31 -9 60 0 28 -2 52 -5 52 -3
0 -7 24 -9 52 -2 29 -6 55 -10 58 -4 3 -8 25 -10 50 -1 24 -7 49 -11 53 -5 5
-7 16 -4 23 3 8 1 14 -4 14 -10 0 -11 3 -15 55 -1 17 -6 33 -11 36 -4 3 -9 19
-11 35 -2 16 -5 30 -6 32 -1 1 -3 10 -5 20 -1 9 -5 25 -9 34 -4 9 -8 22 -10
30 -1 7 -5 18 -9 24 -3 6 -8 25 -9 43 -1 17 -5 31 -9 31 -8 0 -21 37 -23 68
-1 13 -7 27 -14 31 -7 4 -12 12 -10 17 1 5 -3 19 -10 30 -6 12 -9 24 -6 27 3
3 0 16 -7 29 -7 12 -12 26 -11 31 1 4 -3 7 -10 7 -6 0 -9 2 -6 6 3 3 -5 26
-18 51 -13 26 -21 50 -18 55 3 4 2 8 -3 8 -9 0 -33 48 -33 67 0 7 -4 13 -9 13
-7 0 -22 36 -20 49 1 2 -6 8 -15 13 -8 5 -13 15 -10 23 4 8 1 15 -5 15 -6 0
-11 9 -11 21 0 13 -4 18 -12 13 -7 -5 -9 -2 -5 8 3 9 -2 24 -12 34 -9 11 -23
34 -30 52 -7 17 -18 32 -23 32 -6 0 -8 7 -4 15 3 8 -2 18 -10 23 -9 5 -15 12
-15 16 3 13 -33 81 -52 98 -10 9 -17 18 -16 20 6 10 -14 47 -23 42 -7 -5 -9 0
-6 14 4 12 2 20 -3 16 -5 -3 -9 -1 -9 4 0 14 -33 47 -51 50 -9 1 -19 -5 -23
-13z"/>
<path d="M8190 3988 c-13 -10 -20 -21 -17 -24 3 -4 -1 -13 -9 -21 -8 -8 -12
-19 -9 -24 4 -5 1 -9 -4 -9 -6 0 -11 -7 -11 -15 0 -8 -4 -15 -8 -15 -4 0 -9
-12 -10 -27 -1 -16 -7 -30 -12 -31 -6 -2 -8 -8 -4 -13 3 -5 -2 -9 -11 -9 -9 0
-13 -4 -10 -10 3 -5 0 -20 -7 -32 -7 -13 -11 -26 -10 -30 1 -5 -2 -8 -8 -8 -6
0 -10 -7 -10 -15 0 -9 -9 -26 -20 -37 -13 -14 -18 -29 -14 -41 4 -13 2 -17 -5
-13 -6 4 -11 0 -11 -8 0 -9 -4 -16 -10 -16 -5 0 -10 -6 -10 -14 0 -7 -9 -25
-20 -39 -12 -15 -20 -28 -19 -29 5 -7 -34 -78 -42 -78 -5 0 -9 -7 -9 -15 0 -8
-4 -15 -10 -15 -5 0 -10 -9 -10 -20 0 -11 -7 -23 -15 -26 -8 -4 -15 -12 -15
-20 0 -8 -4 -14 -9 -14 -5 0 -14 -14 -22 -32 -7 -17 -28 -46 -46 -64 -18 -19
-33 -36 -33 -39 1 -22 -1 -28 -6 -22 -7 6 -54 -45 -54 -59 0 -5 -18 -26 -40
-48 -22 -21 -38 -41 -36 -45 2 -3 -3 -13 -12 -21 -9 -8 -17 -13 -18 -10 -1 3
-11 -7 -23 -21 -11 -15 -17 -29 -14 -33 3 -3 1 -6 -4 -6 -6 0 -61 -49 -123
-110 -61 -60 -115 -110 -120 -110 -6 0 -10 -7 -10 -16 0 -8 -4 -13 -9 -9 -6 3
-27 -12 -48 -32 -20 -21 -41 -38 -46 -38 -5 0 -15 -9 -23 -19 -8 -11 -14 -16
-14 -10 0 5 -7 0 -15 -10 -8 -11 -15 -17 -15 -13 0 4 -14 -6 -31 -23 -17 -16
-35 -27 -40 -24 -5 3 -9 1 -9 -5 0 -12 -90 -76 -90 -64 0 4 -7 -1 -15 -11 -8
-11 -15 -16 -15 -11 0 5 -7 0 -15 -11 -8 -10 -15 -15 -15 -11 0 5 -18 -5 -39
-22 -21 -17 -46 -31 -55 -31 -9 0 -19 -6 -22 -13 -3 -8 -20 -20 -40 -27 -19
-8 -33 -19 -31 -24 2 -6 1 -23 -4 -37 -4 -16 -3 -31 4 -38 8 -8 8 -11 -1 -11
-6 0 -9 -7 -6 -15 4 -8 1 -21 -5 -29 -6 -7 -9 -15 -6 -17 8 -9 12 -79 4 -79
-5 0 -9 -5 -9 -11 0 -5 4 -7 10 -4 6 4 7 -2 1 -18 -6 -16 -6 -28 2 -36 6 -6 7
-11 2 -11 -6 0 -10 -18 -10 -40 0 -22 4 -40 8 -40 5 0 5 -5 2 -10 -11 -17 -12
-100 -2 -93 5 3 5 -2 -1 -13 -6 -11 -7 -27 -1 -41 6 -16 5 -23 -3 -23 -9 0 -9
-3 0 -12 6 -6 8 -18 3 -27 -6 -14 -8 -64 -2 -108 1 -16 23 -12 83 16 26 12 50
20 52 19 2 -2 13 6 25 16 12 11 21 15 21 10 0 -5 7 0 15 10 8 11 15 17 15 13
0 -9 59 20 84 42 10 9 20 15 22 14 9 -4 44 10 44 18 0 5 9 9 20 9 11 0 20 5
20 10 0 6 9 10 20 10 11 0 20 5 20 10 0 6 6 10 14 10 7 0 19 7 26 15 7 8 21
15 31 15 10 0 25 10 33 22 9 12 16 18 16 13 0 -6 4 -5 8 2 4 6 14 13 22 15 8
2 20 8 26 13 6 6 23 19 38 30 15 11 37 28 48 38 20 16 33 21 51 18 5 -1 6 3 2
9 -3 5 -2 10 3 10 4 0 19 10 32 23 14 12 27 22 30 22 7 0 76 54 106 83 13 13
24 20 24 17 0 -3 11 6 25 21 14 15 25 24 25 20 0 -4 24 17 54 47 30 30 57 53
60 50 3 -3 10 6 17 20 6 14 17 23 24 20 7 -2 16 5 20 16 3 12 10 19 15 16 5
-3 11 4 15 15 3 11 11 20 16 20 15 0 59 47 51 54 -3 4 4 9 16 12 12 4 24 15
27 25 4 10 11 19 16 19 5 0 9 4 9 9 0 5 24 33 54 62 29 30 56 64 60 77 4 12
11 20 15 17 4 -2 14 7 21 20 7 13 16 23 19 20 4 -2 18 13 31 33 14 20 35 47
48 60 13 12 19 22 15 22 -4 0 0 7 11 15 11 8 15 19 10 27 -4 7 -4 10 1 6 13
-12 52 42 46 65 -1 5 3 6 8 3 5 -4 20 12 32 34 13 22 26 40 31 40 4 0 8 7 8
15 0 8 9 24 20 35 11 11 17 20 13 20 -3 0 4 11 17 25 13 14 19 25 14 25 -5 0
-2 5 6 10 8 5 15 13 16 17 2 20 17 42 25 37 5 -3 9 4 9 15 0 12 5 21 11 21 6
0 9 9 6 19 -3 12 1 22 10 25 8 3 12 10 9 15 -3 5 1 11 9 15 8 3 15 12 15 21 0
8 3 15 8 15 4 0 16 20 27 45 11 25 23 45 28 45 4 0 5 5 2 10 -3 6 4 24 16 42
13 17 16 28 8 23 -12 -8 -12 -6 0 8 7 9 10 17 5 17 -5 0 -2 5 6 10 8 5 15 13
16 17 2 17 23 61 33 67 5 4 8 16 6 27 -2 11 2 22 10 26 8 3 12 9 9 14 -3 5 0
9 7 9 6 0 9 8 7 18 -3 10 0 23 6 29 25 27 31 39 30 61 -1 12 3 22 7 22 5 0 9
7 9 15 0 8 5 15 11 15 6 0 8 8 4 19 -3 11 1 25 10 35 9 8 16 18 16 21 0 2 1
10 3 17 12 38 12 68 0 68 -7 0 -15 6 -17 13 -4 9 -8 8 -16 -3 -7 -10 -11 -11
-11 -3 0 7 -11 12 -25 11 -14 -1 -25 -6 -25 -11 0 -5 -7 -4 -15 3 -10 9 -15 9
-15 1 0 -13 -22 -10 -32 4 -5 6 -8 6 -8 -2 0 -12 -17 -12 -36 0 -6 3 -14 3
-18 0 -10 -11 -146 -12 -152 -2 -3 5 -11 6 -17 2 -19 -12 -77 -11 -77 1 0 7
-3 7 -8 0 -8 -14 -54 -13 -64 1 -5 6 -8 6 -8 -1 0 -11 -46 -11 -57 0 -4 3 -12
1 -20 -5 -7 -6 -13 -7 -13 -2 0 15 -37 10 -60 -9z"/>
<path d="M6029 2349 c-10 -19 -13 -124 -14 -492 0 -420 1 -470 16 -477 9 -6
25 -4 40 3 13 7 40 12 59 12 19 0 38 3 41 8 4 5 20 10 37 10 17 1 28 5 26 9
-3 5 8 8 25 8 16 0 33 5 36 10 3 6 17 10 31 10 13 0 24 4 24 8 0 5 12 9 28 10
15 0 38 7 52 14 l25 13 -1 405 c-2 462 -2 455 -10 447 -4 -3 -13 1 -21 9 -8 8
-19 11 -24 8 -15 -9 -59 -12 -59 -5 0 4 -9 7 -20 7 -11 0 -20 -4 -20 -8 0 -8
-34 -3 -52 8 -7 4 -8 3 -4 -4 4 -7 3 -12 -3 -12 -5 0 -13 5 -16 10 -4 7 -12 7
-25 0 -24 -13 -33 -13 -24 1 4 8 0 8 -15 0 -11 -7 -21 -8 -21 -4 0 4 -5 1 -10
-7 -5 -8 -10 -10 -10 -4 0 7 -13 10 -32 8 -17 -2 -35 1 -39 7 -4 8 -12 3 -20
-12z"/>
</g>
</svg>
